<svg width="599" height="599" viewBox="0 0 599 599" fill="none" xmlns="http://www.w3.org/2000/svg">
<path d="M233.5 299.589C233.5 234.246 240.198 174.623 251.237 129.859C251.898 127.178 254.608 125.541 257.289 126.202C259.97 126.863 261.608 129.573 260.947 132.254L260.443 134.318C249.939 177.892 243.5 235.854 243.5 299.589C243.5 367.877 250.892 429.524 262.748 473.946C268.686 496.194 275.67 513.838 283.22 525.802C290.926 538.015 298.343 542.991 304.797 542.991C311.13 542.991 318.396 538.203 325.969 526.437C333.395 514.9 340.293 497.861 346.201 476.324L355.845 478.97C349.811 500.966 342.584 519.099 334.377 531.85C326.567 543.983 317.053 552.451 305.877 552.966C285.123 561.63 266.476 555.178 252.533 544.723C238.542 534.231 228.652 519.315 224.844 509.839C223.814 507.277 225.057 504.365 227.619 503.335C230.101 502.338 232.911 503.473 234.02 505.874L234.123 506.11L234.436 506.866C237.846 514.832 246.484 527.687 258.533 536.723C266.795 542.918 276.367 547.135 286.864 546.99C282.198 543.833 277.862 539.625 273.873 534.842C265.053 524.266 257.104 509.927 250.11 494.568C236.105 463.811 225.424 427.809 219.204 406.705L228.796 403.878C234.022 421.611 242.24 449.28 252.801 475.439C240.832 430.051 233.5 367.943 233.5 299.589ZM346.201 476.324C346.932 473.661 349.683 472.095 352.346 472.825C355.008 473.556 356.575 476.307 355.845 478.97L346.201 476.324ZM366.093 299.589C366.093 231.301 358.701 169.654 346.845 125.231C340.907 102.984 333.922 85.3398 326.373 73.376C318.667 61.1635 311.25 56.1877 304.797 56.1875C299.76 56.1875 294.125 59.1786 288.1 66.5381C282.114 73.8496 276.309 84.8226 270.976 99.0996C270.01 101.686 267.131 103 264.544 102.034C261.957 101.068 260.643 98.1875 261.609 95.6006L262.129 94.2227C267.523 80.0625 273.617 68.4419 280.362 60.2031C286.988 52.1102 294.774 46.6715 303.6 46.2188C322.428 37.4872 340.171 43.426 353.974 53.6855C367.923 64.0544 378.609 79.2919 384.027 90.5439L375.018 94.8828C370.135 84.7426 360.383 70.9109 348.008 61.7119C339.889 55.677 330.981 51.8399 321.641 52.0127C326.751 55.5449 331.501 60.43 335.85 65.9541C344.862 77.3985 353.187 92.8824 360.542 109.361C374.815 141.34 385.863 178.047 391.331 198.973L391.843 200.948L391.9 201.198C392.428 203.791 390.834 206.369 388.243 207.034C385.652 207.699 383.014 206.208 382.227 203.683L382.157 203.435L381.652 201.487C377.202 184.458 369.006 156.872 358.428 130.162C369.425 174.903 376.093 234.406 376.093 299.589C376.093 354.336 371.391 405.045 363.383 446.357L363.327 446.609C362.693 449.177 360.148 450.823 357.522 450.314C354.812 449.789 353.04 447.166 353.565 444.455L354.294 440.622C361.72 400.735 366.093 352.111 366.093 299.589ZM222.587 400.496C225.235 399.716 228.015 401.229 228.796 403.878L219.204 406.705C218.423 404.056 219.938 401.277 222.587 400.496ZM384.027 90.5439C385.225 93.0319 384.18 96.0196 381.692 97.2178C379.204 98.4158 376.217 97.3705 375.018 94.8828L384.027 90.5439Z" style="fill: var(--ifm-color-primary)"/>
<path d="M323.142 299.5C323.142 293.58 323.066 287.755 322.922 282.048C321.352 281.802 319.483 281.42 317.468 280.819C311.912 279.165 304.769 275.718 299.994 268.494C296.996 263.958 292.325 261.524 288.009 260.238C287.011 259.941 286.057 259.715 285.183 259.54C284.415 272.116 284 285.546 284 299.5C284 313.453 284.415 326.883 285.183 339.459C286.057 339.284 287.011 339.059 288.009 338.762C292.325 337.476 296.996 335.042 299.994 330.506C304.769 323.282 311.912 319.835 317.468 318.181C319.483 317.58 321.352 317.197 322.922 316.951C323.066 311.245 323.142 305.419 323.142 299.5ZM322.584 327.183C321.869 327.339 321.109 327.53 320.322 327.765C316.006 329.05 311.335 331.484 308.337 336.02C303.562 343.244 296.419 346.69 290.863 348.345C289.047 348.886 287.35 349.25 285.884 349.497C287.663 372.049 290.597 391.183 294.231 404.835C296.187 412.182 298.273 417.657 300.328 421.184C302.191 424.382 303.371 424.9 303.58 424.983C303.712 424.933 304.029 424.773 304.538 424.278C305.425 423.416 306.527 421.887 307.739 419.469C310.156 414.649 312.512 407.324 314.622 397.771C318.554 379.968 321.429 355.358 322.584 327.183ZM303.58 174.016C303.372 174.098 302.192 174.617 300.328 177.816C298.273 181.343 296.187 186.818 294.231 194.165C290.597 207.817 287.663 226.95 285.884 249.502C287.35 249.749 289.047 250.113 290.863 250.654C296.419 252.309 303.562 255.756 308.337 262.98C311.335 267.516 316.006 269.95 320.322 271.235C321.109 271.47 321.869 271.66 322.584 271.816C321.429 243.641 318.554 219.031 314.622 201.229C312.512 191.676 310.156 184.351 307.739 179.531C306.527 177.113 305.425 175.584 304.538 174.722C304.029 174.227 303.712 174.065 303.58 174.016ZM333.142 299.5C333.142 305.261 333.073 310.936 332.937 316.503H439L439.257 316.51C441.899 316.643 444 318.828 444 321.503C444 324.178 441.899 326.362 439.257 326.496L439 326.503H332.618C331.478 355.502 328.536 381.14 324.387 399.928C322.206 409.8 319.636 418.051 316.679 423.95C315.204 426.891 313.507 429.507 311.507 431.45C309.489 433.411 306.819 435 303.571 435C298.002 435 294.173 430.484 291.687 426.218C288.977 421.566 286.617 415.102 284.568 407.408C280.45 391.942 277.299 370.35 275.549 345.373C274.547 331.078 274 315.623 274 299.5C274 283.377 274.547 267.922 275.549 253.627C277.299 228.65 280.45 207.058 284.568 191.592C286.617 183.898 288.977 177.434 291.687 172.782C294.173 168.516 298.002 164 303.571 164C306.819 164 309.489 165.589 311.507 167.55C313.507 169.493 315.204 172.109 316.679 175.05C319.636 180.949 322.206 189.2 324.387 199.072C328.536 217.86 331.478 243.498 332.618 272.497H439C441.761 272.497 444 274.736 444 277.497C444 280.258 441.761 282.497 439 282.497H332.937C333.073 288.064 333.142 293.739 333.142 299.5Z" style="fill: var(--ifm-color-primary)"/>
<path d="M74.9309 281.271V304.777C74.9309 306.914 74.6041 308.849 73.9504 310.58C73.2967 312.311 72.3339 313.787 71.0619 315.006C69.8076 316.225 68.2617 317.161 66.4244 317.815C64.6047 318.468 62.5201 318.795 60.1704 318.795C57.8031 318.795 55.7537 318.495 54.0224 317.894C52.3087 317.276 50.6569 316.428 49.0669 315.35L52.3794 309.997C53.6337 310.863 54.8086 311.472 55.9039 311.825C56.9992 312.161 58.2447 312.329 59.6404 312.329C61.5307 312.329 63.1031 311.728 64.3574 310.527C65.6294 309.308 66.2654 307.426 66.2654 304.882V287.631H54.9764V281.271H74.9309Z" fill="#F7DF1E"/>
<path d="M108.883 307.268C108.883 309.547 108.283 311.56 107.081 313.309C105.898 315.058 104.193 316.428 101.967 317.417C99.7407 318.406 97.0642 318.901 93.9372 318.901C90.4745 318.901 87.5684 318.397 85.2187 317.39C82.8867 316.366 80.9522 315.103 79.4152 313.601L83.8142 308.725C85.1745 309.909 86.6762 310.827 88.3192 311.481C89.9622 312.117 91.7642 312.435 93.7252 312.435C94.9442 312.435 96.013 312.258 96.9317 311.905C97.8504 311.552 98.5659 311.039 99.0782 310.368C99.5905 309.697 99.8467 308.884 99.8467 307.93C99.8467 307.029 99.6435 306.269 99.2372 305.651C98.8309 305.033 98.1419 304.476 97.1702 303.981C96.2162 303.487 94.8824 302.983 93.1687 302.471C90.3067 301.588 88.0012 300.616 86.2522 299.556C84.5209 298.496 83.2577 297.268 82.4627 295.873C81.6854 294.477 81.2967 292.851 81.2967 290.996C81.2967 288.753 81.915 286.836 83.1517 285.246C84.406 283.656 86.0844 282.446 88.1867 281.615C90.289 280.767 92.6034 280.343 95.1297 280.343C97.974 280.343 100.483 280.759 102.656 281.589C104.829 282.402 106.71 283.568 108.3 285.087L104.193 289.804C102.956 288.762 101.622 287.993 100.191 287.498C98.7602 286.986 97.3027 286.73 95.8187 286.73C94.7234 286.73 93.7605 286.871 92.9302 287.154C92.0999 287.419 91.455 287.817 90.9957 288.347C90.5364 288.876 90.3067 289.539 90.3067 290.334C90.3067 291.111 90.5275 291.765 90.9692 292.295C91.4109 292.825 92.1794 293.328 93.2747 293.806C94.37 294.265 95.8894 294.804 97.8327 295.422C100.147 296.129 102.126 296.977 103.769 297.966C105.429 298.938 106.693 300.165 107.558 301.649C108.442 303.133 108.883 305.006 108.883 307.268Z" fill="#F7DF1E"/>
<path d="M118.614 323.936L112.069 320.941L134.355 274.699L140.848 277.694L118.614 323.936Z" style="fill: var(--ifm-color-primary)"/>
<path d="M162.531 287.923V318H153.839V287.923H143.53V281.271H173.263L172.362 287.923H162.531Z" fill="#3178C6"/>
<path d="M204.221 307.268C204.221 309.547 203.62 311.56 202.419 313.309C201.235 315.058 199.531 316.428 197.305 317.417C195.079 318.406 192.402 318.901 189.275 318.901C185.812 318.901 182.906 318.397 180.557 317.39C178.225 316.366 176.29 315.103 174.753 313.601L179.152 308.725C180.512 309.909 182.014 310.827 183.657 311.481C185.3 312.117 187.102 312.435 189.063 312.435C190.282 312.435 191.351 312.258 192.27 311.905C193.188 311.552 193.904 311.039 194.416 310.368C194.928 309.697 195.185 308.884 195.185 307.93C195.185 307.029 194.981 306.269 194.575 305.651C194.169 305.033 193.48 304.476 192.508 303.981C191.554 303.487 190.22 302.983 188.507 302.471C185.645 301.588 183.339 300.616 181.59 299.556C179.859 298.496 178.596 297.268 177.801 295.873C177.023 294.477 176.635 292.851 176.635 290.996C176.635 288.753 177.253 286.836 178.49 285.246C179.744 283.656 181.422 282.446 183.525 281.615C185.627 280.767 187.941 280.343 190.468 280.343C193.312 280.343 195.821 280.759 197.994 281.589C200.167 282.402 202.048 283.568 203.638 285.087L199.531 289.804C198.294 288.762 196.96 287.993 195.529 287.498C194.098 286.986 192.641 286.73 191.157 286.73C190.061 286.73 189.098 286.871 188.268 287.154C187.438 287.419 186.793 287.817 186.334 288.347C185.874 288.876 185.645 289.539 185.645 290.334C185.645 291.111 185.865 291.765 186.307 292.295C186.749 292.825 187.517 293.328 188.613 293.806C189.708 294.265 191.227 294.804 193.171 295.422C195.485 296.129 197.464 296.977 199.107 297.966C200.767 298.938 202.03 300.165 202.896 301.649C203.779 303.133 204.221 305.006 204.221 307.268Z" fill="#3178C6"/>
<path d="M487.104 307.268C487.104 309.547 486.503 311.56 485.302 313.309C484.118 315.058 482.413 316.428 480.187 317.417C477.961 318.406 475.285 318.901 472.158 318.901C468.695 318.901 465.789 318.397 463.439 317.39C461.107 316.366 459.173 315.103 457.636 313.601L462.035 308.725C463.395 309.909 464.897 310.827 466.54 311.481C468.183 312.117 469.985 312.435 471.946 312.435C473.165 312.435 474.234 312.258 475.152 311.905C476.071 311.552 476.787 311.039 477.299 310.368C477.811 309.697 478.067 308.884 478.067 307.93C478.067 307.029 477.864 306.269 477.458 305.651C477.052 305.033 476.363 304.476 475.391 303.981C474.437 303.487 473.103 302.983 471.389 302.471C468.527 301.588 466.222 300.616 464.473 299.556C462.742 298.496 461.478 297.268 460.683 295.873C459.906 294.477 459.517 292.851 459.517 290.996C459.517 288.753 460.136 286.836 461.372 285.246C462.627 283.656 464.305 282.446 466.407 281.615C468.51 280.767 470.824 280.343 473.35 280.343C476.195 280.343 478.703 280.759 480.876 281.589C483.049 282.402 484.931 283.568 486.521 285.087L482.413 289.804C481.177 288.762 479.843 287.993 478.412 287.498C476.981 286.986 475.523 286.73 474.039 286.73C472.944 286.73 471.981 286.871 471.151 287.154C470.321 287.419 469.676 287.817 469.216 288.347C468.757 288.876 468.527 289.539 468.527 290.334C468.527 291.111 468.748 291.765 469.19 292.295C469.632 292.825 470.4 293.328 471.495 293.806C472.591 294.265 474.11 294.804 476.053 295.422C478.368 296.129 480.346 296.977 481.989 297.966C483.65 298.938 484.913 300.165 485.779 301.649C486.662 303.133 487.104 305.006 487.104 307.268Z" fill="#336791"/>
<path d="M519.228 299.609C519.228 302.012 518.989 304.273 518.512 306.393C518.035 308.495 517.231 310.359 516.101 311.984C514.97 313.61 513.433 314.917 511.49 315.907C513.415 316.225 515.058 316.702 516.419 317.338C517.797 317.956 518.963 318.848 519.917 320.014C520.888 321.198 521.71 322.779 522.381 324.757L515.279 327.169C514.502 325.332 513.663 323.786 512.762 322.532C511.861 321.277 510.73 320.332 509.37 319.696C508.027 319.06 506.287 318.742 504.149 318.742C501.093 318.742 498.549 317.974 496.517 316.437C494.503 314.9 492.993 312.709 491.986 309.864C490.996 307.002 490.502 303.584 490.502 299.609C490.502 295.722 491.023 292.339 492.065 289.46C493.125 286.58 494.715 284.345 496.835 282.755C498.973 281.147 501.641 280.343 504.838 280.343C508.054 280.343 510.721 281.121 512.841 282.675C514.979 284.23 516.578 286.447 517.638 289.327C518.698 292.207 519.228 295.634 519.228 299.609ZM510.165 299.609C510.165 295.122 509.803 291.853 509.078 289.804C508.354 287.755 506.941 286.73 504.838 286.73C502.771 286.73 501.358 287.763 500.598 289.83C499.856 291.88 499.485 295.139 499.485 299.609C499.485 304.096 499.865 307.374 500.625 309.441C501.402 311.508 502.807 312.541 504.838 312.541C506.958 312.541 508.372 311.508 509.078 309.441C509.803 307.356 510.165 304.079 510.165 299.609Z" fill="#336791"/>
<path d="M525.487 318V281.271H534.179V311.136H550.106L549.205 318H525.487Z" fill="#336791"/>
</svg>
