<svg width="530" height="530" viewBox="0 0 530 530" fill="none" xmlns="http://www.w3.org/2000/svg">
<path d="M333 445C333 453.285 326.284 460 318 460C309.716 460 303 453.285 303 445C303 439.736 305.712 435.105 309.816 432.428C311.751 431.165 313.996 430.338 316.412 430.083C316.934 430.028 317.464 430 318 430C320.979 430 323.755 430.869 326.089 432.366C328.077 433.642 329.745 435.374 330.943 437.414C332.251 439.64 333 442.232 333 445Z" fill="#044482"/>
<path d="M363 417C363 425.285 356.284 432 348 432C344.908 432 342.034 431.065 339.647 429.461C337.688 428.145 336.057 426.381 334.901 424.314C333.69 422.15 333 419.656 333 417C333 410.781 336.786 405.445 342.178 403.172C343.968 402.417 345.936 402 348 402C348.372 402 348.741 402.014 349.106 402.04C356.874 402.606 363 409.088 363 417Z" fill="#044482"/>
<path d="M424 349C424 357.284 417.284 364 409 364C402.967 364 397.766 360.439 395.385 355.304C394.496 353.387 394 351.252 394 349C394 344.431 396.043 340.339 399.265 337.588C401.706 335.504 404.824 334.189 408.244 334.019C408.494 334.006 408.747 334 409 334C411.191 334 413.272 334.47 415.149 335.314C420.367 337.662 424 342.907 424 349Z" fill="#044482"/>
<path d="M213 351C213 351.303 212.991 351.604 212.973 351.902C212.507 359.766 205.982 366 198 366C189.716 366 183 359.284 183 351C183 349.114 183.348 347.308 183.984 345.645C184.837 343.415 186.206 341.441 187.946 339.869C190.606 337.464 194.132 336 198 336C204.147 336 209.43 339.697 211.747 344.989C212.553 346.83 213 348.863 213 351Z" fill="#044482"/>
<path d="M88 285C88 285.662 87.9572 286.314 87.874 286.953C87.5614 289.358 86.6792 291.584 85.3672 293.491C82.6628 297.422 78.1324 300 73 300C64.7157 300 58 293.284 58 285C58 278.716 61.8641 273.335 67.3458 271.102C69.0908 270.392 70.9997 270 73 270C73.4277 270 73.8512 270.018 74.2698 270.053C81.9598 270.698 88 277.144 88 285Z" fill="#044482"/>
<path d="M111 139C111 140.876 110.656 142.672 110.027 144.327C109.179 146.558 107.814 148.534 106.079 150.109C103.416 152.527 99.8803 154 96 154C94.6401 154 93.3224 153.819 92.0697 153.48C89.7461 152.851 87.6463 151.677 85.9156 150.104C82.8959 147.36 81 143.402 81 139C81 130.716 87.7158 124 96 124C100.593 124 104.703 126.064 107.454 129.315C108.961 131.095 110.06 133.231 110.608 135.579C110.865 136.678 111 137.823 111 139Z" fill="#044482"/>
<path d="M351 86C351 88.4151 350.429 90.6969 349.415 92.7179C348.351 94.8401 346.797 96.6747 344.902 98.0739C343.036 99.4524 340.838 100.408 338.451 100.801C337.654 100.932 336.835 101 336 101C334.419 101 332.894 100.755 331.463 100.302C330.304 99.9341 329.205 99.4296 328.187 98.807C326.165 97.5708 324.458 95.8691 323.216 93.851C322.497 92.6815 321.933 91.4057 321.554 90.0527C321.525 89.9493 321.497 89.8455 321.47 89.7412C321.163 88.5453 321 87.2917 321 86C321 84.8758 321.124 83.7806 321.358 82.727C322.852 76.0168 328.84 71 336 71C344.284 71 351 77.7157 351 86Z" fill="#044482"/>
<path d="M473 242C473 250.284 466.285 257 458 257C456.052 257 454.19 256.629 452.482 255.953C450.263 255.074 448.303 253.681 446.75 251.921C446.588 251.738 446.43 251.551 446.277 251.359C444.824 249.542 443.785 247.379 443.303 245.013C443.104 244.04 443 243.032 443 242C443 241.903 443.001 241.807 443.003 241.71C443.049 239.264 443.682 236.96 444.765 234.935C445.871 232.867 447.448 231.088 449.352 229.742C451.244 228.405 453.459 227.495 455.857 227.152C456.557 227.052 457.273 227 458 227C466.285 227 473 233.716 473 242Z" fill="#044482"/>
<path d="M438 297.5C438 306.613 430.613 314 421.5 314C421.353 314 421.205 313.998 421.059 313.994C418.623 313.93 416.319 313.339 414.257 312.329C410.067 310.279 406.875 306.506 405.603 301.933C405.21 300.523 405 299.036 405 297.5C405 296.631 405.067 295.778 405.197 294.946C406.424 287.046 413.256 281 421.5 281C423.648 281 425.7 281.411 427.582 282.157C429.794 283.035 431.771 284.377 433.393 286.063C436.246 289.029 438 293.06 438 297.5Z" fill="#044482"/>
<path d="M216 80.5C216 81.8298 215.852 83.1249 215.571 84.3698C215.268 85.7117 214.811 86.9952 214.219 88.2007C213.176 90.3265 211.714 92.2096 209.941 93.7427C207.919 95.4913 205.492 96.7846 202.819 97.4629C201.438 97.8136 199.991 98 198.5 98C197.591 98 196.699 97.9307 195.827 97.7972C195.437 97.7374 195.051 97.6648 194.67 97.5796C192.33 97.0571 190.166 96.0659 188.283 94.7096C187.14 93.8864 186.101 92.9286 185.188 91.8596C183.675 90.0884 182.509 88.0116 181.796 85.7347C181.279 84.0818 181 82.3235 181 80.5C181 70.835 188.835 63 198.5 63C207.096 63 214.245 69.1978 215.721 77.3686C215.904 78.3846 216 79.4311 216 80.5Z" fill="#044482"/>
<path d="M167 315.5C167 317.508 166.662 319.437 166.039 321.234C165.813 321.886 165.55 322.52 165.251 323.134C164.217 325.265 162.763 327.154 160.996 328.695C157.921 331.376 153.9 333 149.5 333C139.835 333 132 325.165 132 315.5C132 314.475 132.088 313.47 132.258 312.492C132.668 310.122 133.555 307.916 134.817 305.975C135.283 305.259 135.799 304.578 136.362 303.939C137.911 302.181 139.806 300.736 141.942 299.712C143.294 299.064 144.742 298.584 146.258 298.3C147.309 298.103 148.392 298 149.5 298C150.79 298 152.048 298.14 153.259 298.405C155.516 298.899 157.61 299.828 159.448 301.101C161.383 302.44 163.035 304.159 164.296 306.151C165.807 308.537 166.756 311.313 166.959 314.295C166.986 314.693 167 315.095 167 315.5Z" fill="#044482"/>
<path d="M357 366.5C357 373.19 353.019 378.95 347.297 381.54C345.224 382.478 342.923 383 340.5 383C340.466 383 340.432 383 340.398 383C331.333 382.945 324 375.579 324 366.5C324 364.776 324.265 363.113 324.755 361.551C325.471 359.271 326.669 357.204 328.229 355.47C331.249 352.112 335.628 350 340.5 350C347.145 350 352.872 353.928 355.487 359.588C356.45 361.673 356.991 363.993 357 366.438C357 366.458 357 366.479 357 366.5Z" fill="#044482"/>
<path d="M360 302.5C360 303.184 359.961 303.858 359.885 304.521C359.7 306.126 359.299 307.665 358.71 309.107C357.813 311.307 356.48 313.283 354.82 314.929C351.657 318.064 347.305 320 342.5 320C336.511 320 331.225 316.992 328.07 312.404C326.757 310.494 325.812 308.309 325.341 305.954C325.117 304.838 325 303.683 325 302.5C325 301.829 325.038 301.167 325.111 300.516C325.382 298.116 326.138 295.863 327.28 293.858C329.147 290.575 332.047 287.956 335.536 286.441C337.637 285.528 339.953 285.016 342.386 285.001C342.424 285 342.462 285 342.5 285C344.35 285 346.134 285.287 347.808 285.819C350.08 286.542 352.152 287.716 353.917 289.237C354.573 289.802 355.188 290.416 355.754 291.072C357.276 292.836 358.453 294.908 359.177 297.181C359.216 297.302 359.253 297.423 359.288 297.544C359.752 299.115 360 300.779 360 302.5Z" fill="#044482"/>
<path d="M81 194C81 194.207 80.9967 194.414 80.9901 194.62C80.9423 196.112 80.7225 197.56 80.3498 198.946C79.7302 201.251 78.6879 203.382 77.3113 205.252C76.7498 206.015 76.1326 206.734 75.4657 207.404C73.8172 209.06 71.8653 210.414 69.7003 211.375C68.9092 211.726 68.0896 212.025 67.2459 212.267C65.5797 212.744 63.8197 213 62 213C61.4184 213 60.8428 212.974 60.2745 212.923C50.5897 212.051 43 203.912 43 194C43 183.507 51.5066 175 62 175C64.4213 175 66.7368 175.453 68.8664 176.279C71.0797 177.137 73.0922 178.398 74.814 179.971C77.1048 182.065 78.8811 184.712 79.9311 187.701C80.6235 189.673 81 191.792 81 194Z" fill="#044482"/>
<path d="M445 158C445 164.83 441.397 170.817 435.988 174.166C434.021 175.384 431.815 176.253 429.456 176.686C428.336 176.892 427.181 177 426 177C423.696 177 421.488 176.59 419.445 175.839C417.215 175.019 415.181 173.793 413.433 172.251C412.402 171.34 411.469 170.319 410.655 169.207C409.284 167.333 408.248 165.198 407.636 162.891C407.3 161.628 407.091 160.313 407.024 158.961C407.008 158.642 407 158.322 407 158C407 155.911 407.337 153.901 407.96 152.021C408.328 150.912 408.794 149.848 409.35 148.84C410.49 146.773 412.003 144.94 413.8 143.434C417.1 140.667 421.356 139 426 139C436.494 139 445 147.507 445 158Z" fill="#044482"/>
<path d="M296 333C296 334.664 295.797 336.281 295.414 337.827C295.396 337.898 295.378 337.969 295.36 338.04C294.76 340.352 293.756 342.501 292.429 344.409C290.93 346.563 289.018 348.409 286.808 349.831C284.858 351.086 282.676 352.011 280.341 352.528C278.943 352.837 277.491 353 276 353C267.605 353 260.419 347.828 257.453 340.497C256.592 338.369 256.086 336.059 256.01 333.64C256.003 333.428 256 333.214 256 333C256 332.959 256 332.917 256.001 332.876C256.015 330.451 256.462 328.129 257.266 325.982C257.995 324.037 259.019 322.235 260.282 320.632C261.735 318.788 263.506 317.205 265.513 315.967C268.562 314.086 272.154 313 276 313C277.295 313 278.561 313.123 279.788 313.358C282.138 313.809 284.343 314.671 286.324 315.867C288.559 317.217 290.51 318.993 292.062 321.081C293.449 322.947 294.518 325.063 295.191 327.349C295.521 328.472 295.755 329.637 295.884 330.833C295.961 331.545 296 332.268 296 333Z" fill="#044482"/>
<path d="M178 181C178 183.26 177.674 185.444 177.066 187.508C174.481 196.287 166.8 202.883 157.445 203.872C156.642 203.957 155.826 204 155 204C153.444 204 151.924 203.846 150.454 203.551C141.844 201.825 134.972 195.291 132.756 186.869C132.263 184.995 132 183.028 132 181C132 180.632 132.009 180.265 132.026 179.901C132.192 176.374 133.152 173.054 134.733 170.117C135.85 168.041 137.277 166.156 138.951 164.525C143.096 160.487 148.757 158 155 158C156.884 158 158.715 158.227 160.468 158.654C162.781 159.218 164.956 160.132 166.936 161.336C170.313 163.39 173.12 166.29 175.061 169.742C176.196 171.76 177.035 173.966 177.52 176.302C177.806 177.681 177.969 179.105 177.996 180.563C177.999 180.708 178 180.854 178 181Z" fill="#044482"/>
<path d="M232 262C232 263.241 231.906 264.459 231.724 265.649C231.364 268.01 230.66 270.258 229.665 272.339C228.876 273.99 227.904 275.535 226.776 276.951C225.315 278.783 223.591 280.397 221.662 281.735C217.784 284.424 213.076 286 208 286C202.041 286 196.59 283.829 192.394 280.234C190.616 278.711 189.063 276.932 187.793 274.955C185.393 271.218 184 266.772 184 262C184 259.757 184.308 257.586 184.883 255.527C185.522 253.24 186.492 251.091 187.737 249.134C191.033 243.954 196.26 240.123 202.406 238.656C204.201 238.227 206.074 238 208 238C208.465 238 208.926 238.013 209.385 238.039C211.548 238.162 213.635 238.572 215.607 239.231C217.856 239.982 219.956 241.056 221.853 242.399C224.265 244.107 226.348 246.249 227.989 248.712C229.197 250.525 230.164 252.512 230.847 254.628C230.88 254.732 230.913 254.835 230.945 254.94C230.956 254.976 230.967 255.012 230.978 255.049C231.643 257.249 232 259.583 232 262Z" fill="#044482"/>
<path d="M353 210C353 211.176 352.933 212.336 352.801 213.476C352.528 215.842 351.98 218.123 351.19 220.288C348.042 228.912 341.048 235.686 332.285 238.536C330.096 239.247 327.797 239.714 325.419 239.904C324.621 239.968 323.814 240 323 240C320.34 240 317.76 239.654 315.304 239.004C313.015 238.398 310.834 237.529 308.794 236.43C303.971 233.832 299.94 229.952 297.158 225.247C295.978 223.251 295.022 221.105 294.326 218.846C293.464 216.05 293 213.079 293 210C293 209.423 293.016 208.85 293.049 208.281C293.183 205.897 293.596 203.588 294.256 201.385C295.822 196.151 298.779 191.518 302.698 187.914C304.414 186.334 306.316 184.953 308.366 183.805C312.529 181.474 317.305 180.107 322.391 180.006C322.594 180.002 322.797 180 323 180C325.182 180 327.31 180.233 329.36 180.676C337.03 182.331 343.609 186.92 347.865 193.209C349.167 195.134 350.251 197.217 351.083 199.425C352.322 202.714 353 206.278 353 210Z" fill="#044482"/>
<path d="M309.816 432.428C311.751 431.165 313.996 430.338 316.412 430.083L286.808 349.831C284.858 351.086 282.676 352.011 280.341 352.528L309.816 432.428Z" style="fill: var(--ifm-color-primary)"/>
<path d="M324.755 361.551C325.471 359.271 326.669 357.204 328.229 355.47L295.36 338.04C294.76 340.352 293.756 342.501 292.429 344.409L324.755 361.551Z" style="fill: var(--ifm-color-primary)"/>
<path d="M390.586 349.407L355.487 359.588C356.45 361.673 356.991 363.993 357 366.438L395.385 355.304C394.496 353.387 394 351.252 394 349C394 344.431 396.043 340.339 399.265 337.588L358.71 309.107C357.813 311.307 356.48 313.283 354.82 314.929L394.561 342.838L295.884 330.833C295.961 331.545 296 332.268 296 333C296 334.664 295.797 336.281 295.414 337.827L390.586 349.407Z" style="fill: var(--ifm-color-primary)"/>
<path d="M405.603 301.933C405.21 300.523 405 299.036 405 297.5C405 296.631 405.067 295.778 405.197 294.946L359.288 297.544C359.752 299.115 360 300.779 360 302.5C360 303.184 359.961 303.858 359.885 304.521L405.603 301.933Z" style="fill: var(--ifm-color-primary)"/>
<path d="M408.244 334.019C408.494 334.006 408.747 334 409 334C411.191 334 413.272 334.47 415.149 335.314L421.059 313.994C418.623 313.93 416.319 313.339 414.257 312.329L408.244 334.019Z" style="fill: var(--ifm-color-primary)"/>
<path d="M355.754 291.072C357.276 292.836 358.453 294.908 359.177 297.181L446.277 251.359C444.824 249.542 443.785 247.379 443.303 245.013L355.754 291.072Z" style="fill: var(--ifm-color-primary)"/>
<path d="M427.582 282.157C429.794 283.035 431.771 284.377 433.393 286.063L452.482 255.953C450.263 255.074 448.303 253.681 446.75 251.921L427.582 282.157Z" style="fill: var(--ifm-color-primary)"/>
<path d="M353.917 289.237L388.701 229.04L443.003 241.71C443.049 239.264 443.682 236.96 444.765 234.935L392.362 222.707L419.445 175.839C417.215 175.019 415.181 173.793 413.433 172.251L385.238 221.045L352.801 213.476C352.528 215.842 351.98 218.123 351.19 220.288L381.578 227.378L347.808 285.819C350.08 286.542 352.152 287.716 353.917 289.237Z" style="fill: var(--ifm-color-primary)"/>
<path d="M435.988 174.166C434.021 175.384 431.815 176.253 429.456 176.686L449.352 229.742C451.244 228.405 453.459 227.495 455.857 227.152L435.988 174.166Z" style="fill: var(--ifm-color-primary)"/>
<path d="M327.28 293.858L297.893 285.183L315.304 239.004C313.015 238.398 310.834 237.529 308.794 236.43L291.16 283.195L231.724 265.649C231.364 268.01 230.66 270.258 229.665 272.339L288.685 289.762L279.788 313.358C282.138 313.809 284.343 314.671 286.324 315.867L295.417 291.75L325.111 300.516C325.382 298.116 326.138 295.863 327.28 293.858Z" style="fill: var(--ifm-color-primary)"/>
<path d="M335.536 286.441C337.637 285.528 339.953 285.016 342.386 285.001L332.285 238.536C330.096 239.247 327.797 239.714 325.419 239.904L335.536 286.441Z" style="fill: var(--ifm-color-primary)"/>
<path d="M328.07 312.404C326.757 310.494 325.812 308.309 325.341 305.954L292.062 321.081C293.449 322.947 294.518 325.063 295.191 327.349L328.07 312.404Z" style="fill: var(--ifm-color-primary)"/>
<path d="M257.453 340.497C256.592 338.369 256.086 336.059 256.01 333.64L211.747 344.989C212.553 346.83 213 348.863 213 351C213 351.303 212.991 351.604 212.973 351.902L257.453 340.497Z" style="fill: var(--ifm-color-primary)"/>
<path d="M183.984 345.645C184.837 343.415 186.206 341.441 187.946 339.869L165.251 323.134C164.217 325.265 162.763 327.154 160.996 328.695L183.984 345.645Z" style="fill: var(--ifm-color-primary)"/>
<path d="M256.001 332.876C256.015 330.451 256.462 328.129 257.266 325.982L166.959 314.295C166.986 314.693 167 315.095 167 315.5C167 317.508 166.662 319.437 166.039 321.234L256.001 332.876Z" style="fill: var(--ifm-color-primary)"/>
<path d="M260.282 320.632C261.735 318.788 263.506 317.205 265.513 315.967L226.776 276.951C225.315 278.783 223.591 280.397 221.662 281.735L260.282 320.632Z" style="fill: var(--ifm-color-primary)"/>
<path d="M159.448 301.101C161.383 302.44 163.035 304.159 164.296 306.151L192.394 280.234C190.616 278.711 189.063 276.932 187.793 274.955L159.448 301.101Z" style="fill: var(--ifm-color-primary)"/>
<path d="M149.5 298C150.79 298 152.048 298.14 153.259 298.405L155.761 241.916L184.883 255.527C185.522 253.24 186.492 251.091 187.737 249.134L156.096 234.347L157.445 203.872C156.642 203.957 155.826 204 155 204C153.444 204 151.924 203.846 150.454 203.551L149.232 231.139L80.3498 198.946C79.7302 201.251 78.6879 203.382 77.3113 205.252L148.897 238.708L146.258 298.3C147.309 298.103 148.392 298 149.5 298Z" style="fill: var(--ifm-color-primary)"/>
<path d="M132.258 312.492C132.668 310.122 133.555 307.916 134.817 305.975L87.874 286.953C87.5614 289.358 86.6792 291.584 85.3672 293.491L132.258 312.492Z" style="fill: var(--ifm-color-primary)"/>
<path d="M136.362 303.939C137.911 302.181 139.806 300.736 141.942 299.712L75.4657 207.404C73.8172 209.06 71.8653 210.414 69.7003 211.375L136.362 303.939Z" style="fill: var(--ifm-color-primary)"/>
<path d="M73 270C73.4277 270 73.8512 270.018 74.2698 270.053L67.2459 212.267C65.5797 212.744 63.8197 213 62 213C61.4184 213 60.8428 212.974 60.2745 212.923L67.3458 271.102C69.0908 270.392 70.9997 270 73 270Z" style="fill: var(--ifm-color-primary)"/>
<path d="M81 194C81 194.207 80.9967 194.414 80.9901 194.62L132.756 186.869C132.263 184.995 132 183.028 132 181C132 180.632 132.009 180.265 132.026 179.901L79.9311 187.701C80.6235 189.673 81 191.792 81 194Z" style="fill: var(--ifm-color-primary)"/>
<path d="M68.8664 176.279C71.0797 177.137 73.0922 178.398 74.814 179.971L92.0697 153.48C89.7461 152.851 87.6463 151.677 85.9156 150.104L68.8664 176.279Z" style="fill: var(--ifm-color-primary)"/>
<path d="M110.027 144.327C109.179 146.558 107.814 148.534 106.079 150.109L134.733 170.117C135.85 168.041 137.277 166.156 138.951 164.525L110.027 144.327Z" style="fill: var(--ifm-color-primary)"/>
<path d="M107.454 129.315C108.961 131.095 110.06 133.231 110.608 135.579L185.188 91.8596C183.675 90.0884 182.509 88.0116 181.796 85.7347L107.454 129.315Z" style="fill: var(--ifm-color-primary)"/>
<path d="M160.468 158.654C162.781 159.218 164.956 160.132 166.936 161.336L194.67 97.5796C192.33 97.0571 190.166 96.0659 188.283 94.7096L160.468 158.654Z" style="fill: var(--ifm-color-primary)"/>
<path d="M207.277 192.919L238.186 198.454L215.607 239.231C217.856 239.982 219.956 241.056 221.853 242.399L245.464 199.758L293.049 208.281C293.183 205.897 293.596 203.588 294.256 201.385L249.047 193.288L266.508 161.752C264.267 160.981 262.183 159.873 260.316 158.488L241.768 191.984L206.942 185.747L206.065 166.947L253.939 151.258C252.804 149.24 251.965 147.033 251.48 144.697L205.726 159.691L202.819 97.4629C201.438 97.8136 199.991 98 198.5 98C197.591 98 196.699 97.9307 195.827 97.7972L198.823 161.954L175.061 169.742C176.196 171.76 177.035 173.966 177.52 176.302L199.162 169.209L199.875 184.482L177.996 180.563C177.999 180.708 178 180.854 178 181C178 183.26 177.674 185.444 177.066 187.508L200.21 191.653L202.406 238.656C204.201 238.227 206.074 238 208 238C208.465 238 208.926 238.013 209.385 238.039L207.277 192.919Z" style="fill: var(--ifm-color-primary)"/>
<path d="M214.219 88.2007C213.176 90.3265 211.714 92.2096 209.941 93.7427L253.73 129.122C254.846 127.046 256.272 125.162 257.946 123.53L214.219 88.2007Z" style="fill: var(--ifm-color-primary)"/>
<path d="M216 80.5C216 81.8298 215.852 83.1249 215.571 84.3698L321.47 89.7412C321.163 88.5453 321 87.2917 321 86C321 84.8758 321.124 83.7806 321.358 82.727L215.721 77.3686C215.904 78.3846 216 79.4311 216 80.5Z" style="fill: var(--ifm-color-primary)"/>
<path d="M289.512 156.982C287.79 158.556 285.827 159.871 283.686 160.867L302.698 187.914C304.414 186.334 306.316 184.953 308.366 183.805L289.512 156.982Z" style="fill: var(--ifm-color-primary)"/>
<path d="M336 101C334.419 101 332.894 100.755 331.463 100.302L326.582 143.187L297 139.976L297 140C297 142.405 296.631 144.723 295.947 146.902L325.79 150.142L322.391 180.006C322.594 180.002 322.797 180 323 180C325.182 180 327.31 180.233 329.36 180.676L332.749 150.898L407.024 158.961C407.008 158.642 407 158.322 407 158C407 155.911 407.337 153.901 407.96 152.021L333.541 143.942L338.451 100.801C337.654 100.932 336.835 101 336 101Z" style="fill: var(--ifm-color-primary)"/>
<path d="M328.187 98.807C326.165 97.5708 324.458 95.8691 323.216 93.851L289.486 122.994C291.215 124.57 292.704 126.406 293.889 128.441L328.187 98.807Z" style="fill: var(--ifm-color-primary)"/>
<path d="M349.415 92.7179C348.351 94.8401 346.797 96.6747 344.902 98.0739L409.35 148.84C410.49 146.773 412.003 144.94 413.8 143.434L349.415 92.7179Z" style="fill: var(--ifm-color-primary)"/>
<path d="M347.865 193.209C349.167 195.134 350.251 197.217 351.083 199.425L410.655 169.207C409.284 167.333 408.248 165.198 407.636 162.891L347.865 193.209Z" style="fill: var(--ifm-color-primary)"/>
<path d="M342.178 403.172C343.968 402.417 345.936 402 348 402C348.372 402 348.741 402.014 349.106 402.04L347.297 381.54C345.224 382.478 342.923 383 340.5 383C340.466 383 340.432 383 340.398 383L342.178 403.172Z" style="fill: var(--ifm-color-primary)"/>
<path d="M326.089 432.366C328.077 433.642 329.745 435.374 330.943 437.414L339.647 429.461C337.688 428.145 336.057 426.381 334.901 424.314L326.089 432.366Z" style="fill: var(--ifm-color-primary)"/>
<path fill-rule="evenodd" clip-rule="evenodd" d="M230.978 255.049C230.967 255.012 230.956 254.976 230.945 254.94C230.913 254.835 230.88 254.732 230.847 254.628C230.892 254.768 230.935 254.908 230.978 255.049Z" fill="#044482"/>
<path d="M294.326 218.846L227.989 248.712C229.197 250.525 230.164 252.512 230.847 254.628C230.88 254.732 230.913 254.835 230.945 254.94C230.956 254.976 230.967 255.012 230.978 255.049L230.979 255.053L297.158 225.247C295.978 223.251 295.022 221.105 294.326 218.846Z" style="fill: var(--ifm-color-primary)"/>
<path d="M266.508 161.752C268.857 162.561 271.377 163 274 163C277.461 163 280.742 162.236 283.686 160.867C285.827 159.871 287.79 158.556 289.512 156.982C292.468 154.28 294.717 150.817 295.947 146.902C296.631 144.723 297 142.405 297 140L297 139.976C296.996 135.771 295.863 131.831 293.889 128.441C292.704 126.406 291.215 124.57 289.486 122.994C285.399 119.27 279.965 117 274 117C267.755 117 262.091 119.489 257.946 123.53C256.272 125.162 254.846 127.046 253.73 129.122C251.988 132.361 251 136.065 251 140C251 141.61 251.165 143.18 251.48 144.697C251.965 147.033 252.804 149.24 253.939 151.258C255.535 154.095 257.715 156.56 260.316 158.488C262.183 159.873 264.267 160.981 266.508 161.752Z" fill="#044482"/>
</svg>
