<svg width="200" height="200" viewBox="0 0 200 200" fill="none" xmlns="http://www.w3.org/2000/svg">
<path d="M21.4285 146.429L100.608 192.143L48.2308 100.005L21.4285 146.429Z" fill="url(#paint0_linear_703_13)"/>
<path d="M179.788 144.286V52.8571L153.395 98.5716L179.788 144.286Z" fill="#00B601"/>
<path d="M100.608 192.143L179.788 146.429V144.286L153.395 98.5716L100.608 7.14282L21.4285 52.8571L48.2308 100.005L100.608 192.143Z" fill="url(#paint1_linear_703_13)"/>
<path d="M21.4285 52.8571V146.429L48.2308 100.005L21.4285 52.8571Z" fill="url(#paint2_linear_703_13)"/>
<path d="M179.788 52.8571L100.608 7.14282L153.395 98.5716L179.788 52.8571Z" fill="url(#paint3_linear_703_13)"/>
<path fill-rule="evenodd" clip-rule="evenodd" d="M143.63 82.5604C141.076 80.0063 137.612 78.5715 134 78.5715H128.381V91.3334C128.381 98.8572 122.333 104.952 114.809 104.952H89.8092C82.2854 104.952 76.1901 111 76.1901 118.524V136.381C76.1901 139.993 77.625 143.457 80.1791 146.011C82.7331 148.565 86.1972 150 89.8092 150H110.19C113.802 150 117.266 148.565 119.82 146.011C122.374 143.457 123.809 139.993 123.809 136.381V128.381H103.381C101.523 128.381 99.9997 125.667 99.9997 123.81H134C137.612 123.81 141.076 122.375 143.63 119.821C146.184 117.267 147.619 113.803 147.619 110.191V92.1905C147.619 88.5785 146.184 85.1145 143.63 82.5604ZM110.19 138.952C110.19 136.143 111.714 134.714 113.619 134.714C115.476 134.714 117 136.143 117 138.952C117 139.396 116.912 139.836 116.742 140.246C116.572 140.656 116.323 141.029 116.009 141.343C115.695 141.657 115.323 141.906 114.913 142.076C114.502 142.246 114.063 142.333 113.619 142.333C111.714 142.333 110.19 141.762 110.19 138.952Z" fill="#FEC107"/>
<path fill-rule="evenodd" clip-rule="evenodd" d="M65.9997 126.191C58.4759 126.191 52.3806 120.095 52.3806 112.571V94.5715C52.3806 87.0477 58.4759 80.9524 65.9997 80.9524H99.9997C99.9997 79.0953 98.4759 76.381 96.6187 76.381H76.1901V68.381C76.1901 60.8572 82.2854 54.7619 89.8092 54.7619H110.19C117.714 54.7619 123.809 60.8572 123.809 68.381V86.2381C123.809 93.7619 117.714 99.8096 110.19 99.8096H85.1901C77.6663 99.8096 71.6187 105.905 71.6187 113.429V126.191H65.9997ZM89.8092 65.8096C89.8092 68.6191 88.2854 70.0477 86.3806 70.0477C84.5235 70.0477 82.9997 68.6191 82.9997 65.8096C82.9997 63 84.5235 62.4286 86.3806 62.4286C88.2854 62.4286 89.8092 63 89.8092 65.8096Z" fill="#0277BD"/>
<defs>
<linearGradient id="paint0_linear_703_13" x1="56.6945" y1="7.14282" x2="144.522" y2="192.143" gradientUnits="userSpaceOnUse">
<stop offset="0.61524" stop-color="#00B601"/>
<stop offset="0.909347" stop-color="#00D400"/>
</linearGradient>
<linearGradient id="paint1_linear_703_13" x1="21.3224" y1="52.8571" x2="179.894" y2="146.429" gradientUnits="userSpaceOnUse">
<stop offset="0.375" stop-color="#00FF01"/>
<stop offset="1" stop-color="#00B601"/>
</linearGradient>
<linearGradient id="paint2_linear_703_13" x1="140.608" y1="35.7143" x2="100.608" y2="192.143" gradientUnits="userSpaceOnUse">
<stop offset="0.456731" stop-color="#00D500"/>
<stop offset="0.759615" stop-color="#00FF01"/>
</linearGradient>
<linearGradient id="paint3_linear_703_13" x1="74.8939" y1="43.5714" x2="206.322" y2="105" gradientUnits="userSpaceOnUse">
<stop offset="0.317308" stop-color="#00B601"/>
<stop offset="0.543269" stop-color="#00D500"/>
</linearGradient>
</defs>
</svg>
