<svg width="599" height="599" viewBox="0 0 599 599" fill="none" xmlns="http://www.w3.org/2000/svg">
<path fill-rule="evenodd" clip-rule="evenodd" d="M106.033 126.071C106.033 97.1971 191.879 67.088 298.88 67.088C405.88 67.088 492.622 97.1971 492.622 126.071C492.622 126.071 497.048 140.816 463.538 183.154C448.772 201.81 440.718 210.523 423.716 229.513C406.713 248.504 399.107 256.994 382.104 275.03C363.301 294.975 344.966 323.126 344.966 323.126V406.685C344.966 414.828 324.533 427.686 299.327 427.686C274.122 427.686 253.882 415.275 253.882 407.131V323.573C253.882 323.573 235.547 295.422 216.744 275.477C199.741 257.441 192.135 248.951 175.132 229.96C158.129 210.97 150.075 202.256 135.31 183.601C101.8 141.263 106.033 126.071 106.033 126.071ZM300.67 172.095C394.82 172.095 471.144 152.289 471.144 127.858C471.144 103.427 394.82 80.0463 300.67 80.0463C206.519 80.0463 130.195 103.427 130.195 127.858C130.195 152.289 206.519 172.095 300.67 172.095ZM256.983 223.263L258.732 201.498L250.955 200.875L249.438 219.76C249.201 222.703 248.755 224.9 248.099 226.352C247.445 227.789 246.18 228.432 244.304 228.282C242.429 228.132 241.283 227.295 240.866 225.773C240.45 224.235 240.36 221.995 240.597 219.052L242.114 200.166L234.337 199.543L232.589 221.309C232.401 223.638 232.686 225.72 233.443 227.554C234.2 229.389 235.436 230.874 237.153 232.009C238.886 233.146 241.115 233.823 243.842 234.042C246.552 234.259 248.847 233.928 250.725 233.049C252.621 232.155 254.089 230.863 255.129 229.173C256.186 227.468 256.804 225.498 256.983 223.263ZM276.126 235.044L277.125 208.183L285.917 208.509L286.944 202.599L260.355 201.612L260.134 207.552L269.352 207.894L268.353 234.755L276.126 235.044ZM299.36 216.803L299.337 208.112L312.332 208.077L313.124 202.534L291.52 202.591L291.607 235.414L299.409 235.394L299.375 222.368L310.9 222.338L310.885 216.773L299.36 216.803ZM318.124 217.463L318.372 223.283L338.89 222.413L338.642 216.592L318.124 217.463ZM365.37 211.171C366.094 210 366.391 208.651 366.259 207.126C366.144 205.788 365.774 204.616 365.147 203.608C364.535 202.583 363.709 201.735 362.667 201.064C361.641 200.391 360.45 199.915 359.093 199.635C357.735 199.34 356.26 199.26 354.669 199.397C353.11 199.531 351.679 199.868 350.377 200.407C349.089 200.93 347.982 201.627 347.058 202.499C346.149 203.369 345.467 204.386 345.012 205.551C344.555 206.699 344.387 207.973 344.508 209.373C344.663 211.182 345.159 212.613 345.996 213.667C346.847 214.703 348.153 215.684 349.915 216.61C348.141 217.571 346.77 218.79 345.802 220.267C344.835 221.745 344.432 223.42 344.593 225.292C344.738 226.975 345.313 228.502 346.32 229.874C347.341 231.228 348.779 232.269 350.635 232.997C352.507 233.724 354.773 233.973 357.435 233.745C360.16 233.511 362.389 232.86 364.122 231.792C365.871 230.723 367.139 229.417 367.927 227.876C368.729 226.318 369.057 224.697 368.912 223.014C368.754 221.173 368.099 219.55 366.946 218.143C365.808 216.72 364.089 215.552 361.789 214.64C363.452 213.499 364.646 212.343 365.37 211.171Z" fill="#044482"/>
<path d="M361.442 223.607C361.349 222.522 361.052 221.66 360.553 221.022C360.07 220.382 359.35 219.857 358.394 219.448C357.438 219.023 356.196 218.615 354.671 218.223C354.076 218.686 353.567 219.221 353.143 219.827C352.718 220.419 352.402 221.08 352.195 221.81C352.004 222.54 351.946 223.337 352.02 224.202C352.137 225.555 352.626 226.63 353.488 227.428C354.364 228.208 355.59 228.531 357.165 228.396C358.788 228.256 359.932 227.722 360.598 226.794C361.262 225.849 361.544 224.787 361.442 223.607Z" fill="#044482"/>
<path d="M351.619 208.763C351.686 209.533 351.909 210.196 352.29 210.749C352.687 211.302 353.259 211.775 354.007 212.171C354.755 212.566 355.691 212.922 356.813 213.237C357.816 212.359 358.482 211.525 358.811 210.736C359.138 209.932 359.263 209.073 359.184 208.161C359.084 206.997 358.686 206.064 357.991 205.363C357.312 204.661 356.35 204.363 355.106 204.47C353.893 204.574 352.977 204.994 352.358 205.728C351.753 206.446 351.507 207.457 351.619 208.763Z" fill="#044482"/>
<path d="M137.55 82.2981C137.158 83.5059 137.034 84.4338 137.18 85.0819C137.345 85.7366 137.755 86.3258 138.408 86.8496L134.405 92.4921C132.572 91.6962 131.106 90.7636 130.006 89.6943C128.934 88.6115 128.241 87.2848 127.928 85.7144C126.223 86.7848 124.296 87.3717 122.149 87.475C120.008 87.5582 117.941 87.276 115.948 86.6285C112.647 85.556 110.314 83.7632 108.95 81.2503C107.612 78.7238 107.424 75.981 108.385 73.0221C109.517 69.5398 111.748 67.2941 115.081 66.2849C118.433 65.2823 122.585 65.5854 127.537 67.1943L131.854 68.5972L132.247 67.3895C132.789 65.7188 132.648 64.3043 131.823 63.1459C131.018 61.9942 129.578 61.0814 127.505 60.4078C126.479 60.0743 125.111 59.7968 123.403 59.5755C121.701 59.3341 119.956 59.2235 118.17 59.2438L118.026 52.1871C120.354 52.0757 122.701 52.1817 125.066 52.5051C127.451 52.835 129.529 53.2878 131.301 53.8633C136.071 55.4133 139.276 57.5341 140.917 60.2257C142.583 62.9036 142.822 66.0743 141.631 69.7378L137.55 82.2981ZM121.456 80.8742C122.483 81.2078 123.658 81.2557 124.981 81.0181C126.311 80.7604 127.451 80.1627 128.401 79.2252L130.088 74.032L127.733 73.2668C125.076 72.4035 122.99 72.1817 121.474 72.6015C119.964 73.0011 118.954 73.986 118.444 75.556C118.045 76.7839 118.103 77.8711 118.619 78.8176C119.162 79.7505 120.107 80.436 121.456 80.8742ZM136.853 49.9258C135.685 49.5465 134.781 49.0079 134.14 48.31C133.525 47.5985 132.988 46.9232 132.528 46.2842C132.075 45.625 131.516 45.1875 130.852 44.9717C130.107 44.7297 129.431 44.7549 128.824 45.0473C128.237 45.3462 127.559 45.8601 126.788 46.5888L122.752 42.6738C124.139 41.0101 125.715 39.6863 127.481 38.7024C129.254 37.6984 131.056 37.494 132.888 38.0891C134.115 38.4881 135.047 39.0466 135.681 39.7646C136.322 40.4625 136.86 41.1378 137.293 41.7904C137.753 42.4294 138.325 42.8602 139.009 43.0825C139.674 43.2983 140.306 43.2701 140.906 42.9978C141.513 42.7054 142.209 42.2082 142.993 41.5062L147.029 45.4211C145.59 47.1789 143.977 48.513 142.19 49.4235C140.423 50.3404 138.644 50.5079 136.853 49.9258Z" style="fill: var(--ifm-color-primary)"/>
<path d="M273.944 469.874C274.419 471.052 274.921 471.842 275.449 472.245C275.997 472.64 276.689 472.828 277.526 472.81L278.087 479.705C276.171 480.274 274.448 480.502 272.919 480.389C271.401 480.249 270.018 479.678 268.769 478.676C268.15 480.592 267.052 482.28 265.473 483.74C263.886 485.18 262.122 486.292 260.179 487.077C256.961 488.378 254.021 488.504 251.361 487.456C248.712 486.38 246.805 484.4 245.639 481.515C244.268 478.121 244.534 474.966 246.438 472.051C248.361 469.128 251.737 466.691 256.564 464.741L260.773 463.04L260.298 461.863C259.64 460.234 258.622 459.241 257.245 458.884C255.888 458.52 254.199 458.746 252.178 459.562C251.177 459.967 249.951 460.633 248.5 461.562C247.041 462.471 245.634 463.507 244.278 464.671L239.632 459.358C241.344 457.776 243.21 456.349 245.229 455.076C247.269 453.796 249.152 452.807 250.879 452.109C255.529 450.23 259.348 449.794 262.335 450.802C265.333 451.782 267.553 454.058 268.996 457.629L273.944 469.874ZM260.699 479.129C261.7 478.724 262.631 478.006 263.492 476.973C264.345 475.921 264.835 474.73 264.96 473.401L262.914 468.339L260.618 469.266C258.028 470.313 256.287 471.484 255.395 472.78C254.496 474.057 254.355 475.46 254.974 476.991C255.457 478.188 256.201 478.983 257.204 479.377C258.22 479.743 259.385 479.66 260.699 479.129ZM252.601 445.524C251.463 445.984 250.424 446.153 249.484 446.03C248.556 445.88 247.71 445.708 246.947 445.514C246.176 445.301 245.467 445.325 244.819 445.586C244.093 445.88 243.592 446.333 243.315 446.948C243.057 447.554 242.868 448.384 242.746 449.437L237.138 449.032C237.13 446.867 237.487 444.84 238.207 442.951C238.92 441.042 240.169 439.727 241.955 439.005C243.152 438.522 244.224 438.351 245.172 438.493C246.112 438.616 246.957 438.788 247.709 439.009C248.472 439.203 249.187 439.165 249.854 438.895C250.502 438.634 250.968 438.206 251.253 437.611C251.53 436.997 251.743 436.169 251.893 435.127L257.501 435.532C257.528 437.804 257.15 439.863 256.366 441.709C255.602 443.547 254.347 444.818 252.601 445.524Z" style="fill: var(--ifm-color-primary)"/>
<path d="M467.007 75.6852C467.826 77.3504 468.762 78.6062 469.815 79.4526C470.88 80.272 472.04 80.7458 473.292 80.874C474.538 80.9822 475.832 80.8055 477.173 80.3438C478.633 79.8408 479.962 79.1149 481.157 78.1661C482.352 77.2172 483.443 76.1255 484.428 74.891L490.018 78.7413C488.958 80.5388 487.499 82.2165 485.64 83.7742C483.801 85.3251 481.521 86.5691 478.799 87.5062C475.157 88.7603 471.857 89.0907 468.9 88.4974C465.935 87.8841 463.395 86.5203 461.28 84.406C459.164 82.2918 457.537 79.5837 456.4 76.2818C455.319 73.14 454.937 70.0816 455.256 67.1067C455.568 64.1117 456.612 61.4576 458.39 59.1443C460.181 56.8042 462.747 55.0587 466.089 53.908C469.131 52.8606 471.986 52.6049 474.655 53.1408C477.345 53.6698 479.72 54.9448 481.781 56.9659C483.863 58.9801 485.492 61.6982 486.671 65.1202C486.857 65.6605 487.037 66.2477 487.21 66.8819C487.404 67.5091 487.553 68.0732 487.659 68.5742L467.007 75.6852ZM468.28 60.2717C466.579 60.8574 465.419 61.9397 464.798 63.5187C464.178 65.0977 464.219 67.2659 464.923 70.0233L476.629 65.9923C475.81 63.6778 474.719 61.9718 473.356 60.8742C471.993 59.7766 470.301 59.5757 468.28 60.2717ZM464.849 35.0956L471.001 40.9685L458.766 51.4602L454.501 47.5566L464.849 35.0956Z" style="fill: var(--ifm-color-primary)"/>
<path d="M326.76 517.645C326.412 519.468 326.404 521.034 326.735 522.343C327.093 523.639 327.734 524.715 328.657 525.571C329.587 526.408 330.727 527.045 332.075 527.483C333.545 527.961 335.042 528.18 336.568 528.142C338.094 528.103 339.621 527.888 341.151 527.495L343.298 533.934C341.37 534.731 339.195 535.193 336.773 535.319C334.371 535.451 331.801 535.072 329.064 534.182C325.401 532.992 322.566 531.27 320.561 529.016C318.563 526.742 317.355 524.125 316.938 521.163C316.52 518.201 316.851 515.059 317.93 511.738C318.957 508.578 320.493 505.906 322.538 503.722C324.589 501.517 327.021 500.026 329.833 499.249C332.671 498.458 335.771 498.608 339.133 499.7C342.192 500.694 344.627 502.209 346.436 504.243C348.265 506.284 349.395 508.732 349.825 511.586C350.275 514.448 349.941 517.599 348.822 521.041C348.646 521.585 348.436 522.162 348.193 522.773C347.97 523.39 347.75 523.931 347.533 524.394L326.76 517.645ZM337.053 506.101C335.342 505.545 333.764 505.711 332.318 506.599C330.873 507.487 329.601 509.243 328.503 511.869L340.278 515.695C341.017 513.353 341.172 511.334 340.744 509.637C340.317 507.94 339.086 506.762 337.053 506.101ZM349.464 483.93L350.843 492.323L334.758 493.338L333.7 487.654L349.464 483.93Z" style="fill: var(--ifm-color-primary)"/>
<path d="M209.632 121.093C210.933 121.541 212.239 121.711 213.552 121.604C214.892 121.483 216.27 121.219 217.687 120.811L219.852 128.272C218.038 128.99 215.982 129.402 213.685 129.506C211.409 129.618 209.029 129.246 206.548 128.392C203.126 127.214 200.425 125.5 198.446 123.252C196.474 120.984 195.258 118.371 194.799 115.415C194.346 112.439 194.692 109.29 195.836 105.968C196.98 102.646 198.666 99.925 200.896 97.8052C203.153 95.6723 205.777 94.2926 208.768 93.6662C211.779 93.0466 214.996 93.326 218.418 94.5043C220.839 95.338 222.873 96.419 224.52 97.7471C226.194 99.062 227.594 100.652 228.72 102.517L222.644 106.805C221.825 105.672 220.888 104.689 219.832 103.855C218.776 103.022 217.597 102.381 216.297 101.933C214.155 101.196 212.162 101.36 210.318 102.426C208.5 103.479 206.975 105.797 205.742 109.379C204.935 111.72 204.608 113.678 204.76 115.252C204.919 116.807 205.428 118.057 206.289 119.002C207.177 119.935 208.291 120.632 209.632 121.093ZM204.833 136.397C205.108 135.596 204.834 134.898 204.01 134.3C203.179 133.723 201.843 133.118 200.002 132.484L203.478 125.119L208.761 126.938L207.438 130.78C209.457 131.744 210.797 132.922 211.459 134.314C212.135 135.733 212.193 137.252 211.635 138.873C211.167 140.234 210.383 141.307 209.284 142.093C208.185 142.879 206.866 143.331 205.325 143.45C203.778 143.588 202.093 143.344 200.272 142.717C198.852 142.228 197.586 141.579 196.476 140.772C195.387 139.971 194.514 139.19 193.859 138.427L197.579 134.839C198.056 135.339 198.594 135.793 199.192 136.201C199.784 136.628 200.41 136.956 201.07 137.183C202.03 137.514 202.839 137.635 203.496 137.548C204.153 137.461 204.598 137.077 204.833 136.397Z" style="fill: var(--ifm-color-primary)"/>
<path d="M231.876 509.07C232.898 508.149 233.681 507.089 234.223 505.888C234.767 504.658 235.204 503.325 235.534 501.888L243.11 503.611C242.858 505.547 242.222 507.544 241.199 509.603C240.193 511.649 238.715 513.549 236.764 515.305C234.075 517.727 231.267 519.258 228.341 519.899C225.401 520.525 222.527 520.321 219.719 519.29C216.896 518.243 214.309 516.414 211.959 513.803C209.608 511.192 208.046 508.398 207.273 505.42C206.501 502.412 206.567 499.448 207.469 496.528C208.387 493.594 210.191 490.916 212.88 488.495C214.783 486.781 216.715 485.526 218.675 484.73C220.637 483.903 222.706 483.45 224.883 483.369L225.687 490.762C224.3 490.929 222.985 491.272 221.744 491.792C220.503 492.311 219.371 493.031 218.349 493.952C216.666 495.467 215.844 497.29 215.882 499.42C215.922 501.52 217.209 503.978 219.744 506.793C221.401 508.633 222.955 509.868 224.405 510.499C225.842 511.114 227.182 511.274 228.427 510.98C229.672 510.655 230.822 510.019 231.876 509.07ZM242.934 520.687C242.368 520.057 241.623 519.958 240.702 520.39C239.794 520.837 238.617 521.712 237.17 523.015L232.413 516.404L236.566 512.665L239.285 515.685C241.106 514.386 242.786 513.785 244.325 513.881C245.893 513.978 247.251 514.664 248.398 515.938C249.361 517.007 249.92 518.213 250.074 519.555C250.229 520.897 249.984 522.27 249.341 523.675C248.712 525.096 247.682 526.45 246.251 527.739C245.134 528.745 243.954 529.537 242.71 530.116C241.481 530.681 240.374 531.065 239.39 531.268L238.055 526.276C238.724 526.101 239.381 525.85 240.028 525.525C240.689 525.215 241.278 524.826 241.797 524.359C242.552 523.679 243.051 523.031 243.293 522.414C243.535 521.797 243.415 521.221 242.934 520.687Z" style="fill: var(--ifm-color-primary)"/>
<path d="M302.945 152.015C302.945 153.285 303.115 154.206 303.453 154.777C303.813 155.349 304.385 155.783 305.168 156.079L303.104 162.682C301.115 162.492 299.432 162.058 298.056 161.381C296.702 160.682 295.633 159.635 294.85 158.238C293.559 159.783 291.908 160.936 289.897 161.698C287.887 162.439 285.834 162.809 283.738 162.809C280.267 162.809 277.495 161.825 275.421 159.857C273.368 157.867 272.341 155.317 272.341 152.206C272.341 148.544 273.77 145.719 276.627 143.729C279.506 141.74 283.548 140.745 288.755 140.745H293.294V139.475C293.294 137.719 292.723 136.417 291.58 135.57C290.458 134.724 288.807 134.301 286.627 134.301C285.548 134.301 284.162 134.459 282.469 134.777C280.775 135.073 279.082 135.507 277.389 136.078L275.072 129.412C277.252 128.586 279.516 127.962 281.865 127.538C284.236 127.115 286.352 126.904 288.215 126.904C293.231 126.904 296.935 127.93 299.326 129.983C301.739 132.015 302.945 134.957 302.945 138.809V152.015ZM287.199 155.635C288.278 155.635 289.411 155.317 290.596 154.682C291.781 154.026 292.681 153.105 293.294 151.92V146.46H290.818C288.024 146.46 285.971 146.894 284.659 147.761C283.347 148.608 282.691 149.857 282.691 151.507C282.691 152.798 283.082 153.814 283.865 154.555C284.67 155.275 285.781 155.635 287.199 155.635ZM280.31 122.903L276.627 118.808L285.643 109.951H291.802L300.755 118.808L297.167 122.903L288.723 116.935L280.31 122.903Z" style="fill: var(--ifm-color-primary)"/>
<path d="M378.335 105.525C381.617 104.395 384.649 104.134 387.433 104.743C390.217 105.351 392.657 106.716 394.752 108.837C396.841 110.938 398.471 113.69 399.643 117.092C400.862 120.634 401.293 123.899 400.934 126.888C400.589 129.85 399.499 132.407 397.667 134.56C395.834 136.714 393.286 138.352 390.025 139.475C386.783 140.591 383.77 140.879 380.987 140.337C378.224 139.789 375.785 138.458 373.669 136.343C371.573 134.222 369.912 131.38 368.686 127.818C367.521 124.436 367.112 121.265 367.457 118.303C367.823 115.334 368.912 112.743 370.724 110.53C372.556 108.31 375.093 106.642 378.335 105.525ZM380.743 112.519C378.802 113.188 377.637 114.484 377.247 116.409C376.871 118.307 377.279 120.987 378.471 124.449C379.684 127.971 381.023 130.364 382.488 131.628C383.973 132.885 385.686 133.179 387.627 132.511C389.568 131.843 390.726 130.559 391.103 128.662C391.499 126.757 391.084 124.023 389.857 120.461C388.672 117.019 387.337 114.67 385.852 113.413C384.387 112.149 382.684 111.851 380.743 112.519ZM376.975 86.7543L383.127 92.6272L370.892 103.119L366.626 99.2154L376.975 86.7543Z" style="fill: var(--ifm-color-primary)"/>
<path d="M316.726 456.706C319.966 457.95 322.457 459.7 324.199 461.955C325.94 464.211 326.932 466.824 327.174 469.796C327.423 472.749 326.903 475.904 325.614 479.263C324.271 482.761 322.502 485.539 320.306 487.598C318.138 489.644 315.66 490.903 312.872 491.375C310.083 491.846 307.079 491.464 303.858 490.227C300.657 488.999 298.165 487.282 296.381 485.079C294.617 482.883 293.604 480.295 293.342 477.315C293.1 474.343 293.654 471.099 295.004 467.581C296.286 464.242 298.011 461.549 300.18 459.503C302.368 457.463 304.868 456.178 307.679 455.648C310.509 455.125 313.525 455.478 316.726 456.706ZM314.075 463.612C312.158 462.876 310.432 463.121 308.897 464.345C307.389 465.557 305.979 467.872 304.667 471.29C303.332 474.768 302.819 477.462 303.129 479.372C303.458 481.289 304.581 482.616 306.498 483.351C308.414 484.087 310.127 483.849 311.635 482.637C313.163 481.432 314.602 479.072 315.952 475.554C317.256 472.156 317.744 469.498 317.415 467.58C317.105 465.671 315.992 464.348 314.075 463.612ZM327.75 441.453L328.688 449.906L312.571 450.079L311.813 444.347L327.75 441.453Z" style="fill: var(--ifm-color-primary)"/>
<path d="M302.945 549.751C302.945 551.021 303.115 551.942 303.453 552.513C303.813 553.085 304.385 553.519 305.168 553.815L303.104 560.418C301.115 560.228 299.432 559.794 298.056 559.117C296.702 558.418 295.633 557.371 294.85 555.974C293.559 557.519 291.908 558.672 289.897 559.434C287.887 560.175 285.834 560.545 283.738 560.545C280.267 560.545 277.495 559.561 275.421 557.593C273.368 555.603 272.341 553.053 272.341 549.942C272.341 546.28 273.77 543.455 276.627 541.465C279.506 539.476 283.548 538.481 288.755 538.481H293.294V537.211C293.294 535.455 292.723 534.153 291.58 533.306C290.458 532.46 288.807 532.037 286.627 532.037C285.548 532.037 284.162 532.195 282.469 532.513C280.775 532.809 279.082 533.243 277.389 533.814L275.072 527.148C277.252 526.322 279.516 525.698 281.865 525.274C284.236 524.851 286.352 524.64 288.215 524.64C293.231 524.64 296.935 525.666 299.326 527.719C301.739 529.751 302.945 532.693 302.945 536.545V549.751ZM287.199 553.371C288.278 553.371 289.411 553.053 290.596 552.418C291.781 551.762 292.681 550.841 293.294 549.656V544.196H290.818C288.024 544.196 285.971 544.63 284.659 545.497C283.347 546.344 282.691 547.593 282.691 549.243C282.691 550.535 283.082 551.55 283.865 552.291C284.67 553.011 285.781 553.371 287.199 553.371ZM280.31 520.639L276.627 516.544L285.643 507.687H291.802L300.755 516.544L297.167 520.639L288.723 514.671L280.31 520.639Z" style="fill: var(--ifm-color-primary)"/>
</svg>
